<?xml version="1.0" encoding="UTF-8"?>
<svg id="Layer_1" data-name="Layer 1" xmlns="http://www.w3.org/2000/svg" version="1.1" xmlns:xlink="http://www.w3.org/1999/xlink" viewBox="0 0 750.92 170.77">
  <defs>
    <style>
      .cls-1 {
        fill: none;
      }

      .cls-1, .cls-2 {
        stroke-width: 0px;
      }

      .cls-3 {
        clip-path: url(#clippath);
      }

      .cls-2 {
        fill: #fff;
      }
    </style>
    <clipPath id="clippath">
      <polyline class="cls-1" points="-131.69 271 -131.69 -229 868.31 -229 868.31 271"/>
    </clipPath>
  </defs>
  <g class="cls-3">
    <path class="cls-2" d="M.21,170.88V1.43h749.43v169.45H.21ZM15.22,155.73h719.44V16.66H15.22v139.07Z"/>
    <path class="cls-2" d="M612.2,122.03h-19.61v-36.09c-.42-.1-.85-.19-1.27-.29-6.41,10.59-13,21.07-19.13,31.82-2.11,3.71-4.48,5.15-8.68,4.79-4.58-.39-9.22-.09-14.14-.09V50.59h19.62v36.31l1.16.26c5.56-9.18,11.63-18.1,16.52-27.63,3.71-7.23,8.22-11,16.58-9.35,2.72.53,5.63.08,8.95.08v71.75Z"/>
    <path class="cls-2" d="M52.73,122.02V50.43c14.43,0,28.6-.89,42.6.25,14.7,1.19,21.94,18.38,13.89,30.76-.72,1.1-1.51,2.16-2.4,3.41,6.81,5.79,10.71,12.72,8.42,21.95-2.14,8.58-8.89,14.88-17.66,15.12-14.79.39-29.6.11-44.85.11ZM72.77,106.99c4.56,0,8.54,0,12.52,0,.5,0,1,.03,1.49-.03,4.37-.49,7.22-3.44,7.23-7.44,0-4.03-2.87-7.1-7.26-7.28-4.6-.19-9.22-.04-13.99-.04v14.8ZM72.95,63.98v14.43c5.26,0,10.24.37,15.13-.12,3.97-.39,6.08-3.33,5.96-7.37-.11-3.8-2.25-6.52-6-6.84-4.9-.43-9.87-.1-15.09-.1Z"/>
    <path class="cls-2" d="M696.8,122.14c-8.02,0-14.8.17-21.56-.13-1.46-.06-3.16-1.55-4.2-2.83-5.9-7.18-11.64-14.5-18.2-22.74v25.36h-20.13V50.62h19.83v20.14c.37.13.75.26,1.12.4,4.72-5.45,9.68-10.71,14.06-16.41,2.74-3.57,5.79-4.86,10.15-4.6,5.3.32,10.63.07,17.26.07-9.91,11.64-19.19,22.53-28.73,33.75,9.93,12.47,19.75,24.8,30.4,38.17Z"/>
    <path class="cls-2" d="M357.84,50.39h19.51v20.74c.35.14.7.29,1.05.43,5.22-6.07,10.28-12.3,15.77-18.13,1.56-1.65,4.31-2.86,6.6-3.02,5.96-.42,11.96-.14,19.39-.14-9.96,11.65-19.24,22.51-28.78,33.68,9.97,12.51,19.85,24.91,30.43,38.18-8.03,0-14.94.14-21.84-.13-1.31-.05-2.81-1.53-3.78-2.71-5.92-7.18-11.7-14.47-18.35-22.74v25.36h-19.98V50.39Z"/>
    <path class="cls-2" d="M459.12,100.36v21.48h-19.75V50.48c1.67-.09,3.27-.25,4.86-.25,10.31,0,20.63-.16,30.94.09,13.64.33,24.18,11.73,23.99,25.55-.19,13.53-10.94,24.3-24.5,24.48-4.95.07-9.91.01-15.54.01ZM459.45,81.88c4.6,0,8.93.36,13.17-.1,4.12-.46,6.6-3.23,6.42-7.55-.17-4.03-2.54-6.61-6.54-6.92-4.25-.33-8.55-.07-13.05-.07v14.64Z"/>
    <path class="cls-2" d="M276.96,108.07c5.47-3.83,10.62-7.44,16.2-11.34,4.61,5.32,10.31,8.97,17.4,7.37,3.99-.9,8.26-2.96,11.18-5.76,6.78-6.51,6.45-17.42.08-24.4-6.76-7.39-16.73-7.82-26-1.19-4.54-4.75-9.06-9.48-13.61-14.24,13.07-14.48,38.99-14.33,53.61.84,15.54,16.12,14.37,41.75-2.56,56.03-17.34,14.63-42.45,11.59-56.29-7.3Z"/>
    <path class="cls-2" d="M235,79.37c-4.63,13.27-8.97,25.1-12.81,37.09-1.37,4.28-3.08,6.39-7.92,5.82-4.43-.52-8.96-.11-13.9-.11.34-1.54.49-2.78.89-3.93,7.46-21.36,15.02-42.68,22.35-64.08,1.05-3.05,2.41-4.22,5.64-4.01,5.13.34,11.45-1.52,15.11.87,3.37,2.2,4.01,8.72,5.66,13.41,6.65,18.97,13.23,37.96,20.11,57.73-6.42,0-12.32.2-18.19-.17-1.13-.07-2.58-2.18-3.11-3.64-4.54-12.48-8.9-25.03-13.81-38.98Z"/>
    <path class="cls-2" d="M131.1,121.82V50.49h19.73v53.14h38.11v18.19h-57.85Z"/>
    <path class="cls-2" d="M532.24,122.02h-19.43V50.52h19.43v71.5Z"/>
  </g>
</svg>