<?xml version="1.0" encoding="utf-8"?>
<!-- Generator: Adobe Illustrator 27.9.2, SVG Export Plug-In . SVG Version: 6.00 Build 0)  -->
<svg version="1.1" id="Layer_2" xmlns="http://www.w3.org/2000/svg" xmlns:xlink="http://www.w3.org/1999/xlink" x="0px" y="0px"
	 viewBox="0 0 675 120.5" style="enable-background:new 0 0 675 120.5;" xml:space="preserve">
<style type="text/css">
	.st0{fill:none;stroke:#00D02F;stroke-miterlimit:10;}
	.st1{fill:#FF3131;}
	.st2{fill:#777777;}
</style>
<path class="st0" d="M-78.5-123.5"/>
<g>
	<path class="st1" d="M182.5,63.92c0,0,1-23.42,17-28.42l6,8l14-34l-39,1l5,7c0,0-20,13-25,40c0,0-6-14-37-15l19-31l-18-8
		c0,0-33,57-34,61c0,0-10-19-29-20l28-37L10,7v18.38L53,25L30.5,56.5c0,0,34-6,41,16c0,0,5,25-21,27c0,0-19,1-30-10L5,101.5
		c0,0,24.5,16.97,41,16.49c0,0,33.5-1.49,42.5-24.49c0,0,9,23,38,22c0,0,31,1,39-28c0,0,18,22,33,26l9-20c0,0-25-6-25-30"/>
	<path class="st1" d="M226,11l-7,21c0,0,26,4,25,32c0,0,1.5,24.5-28.5,30.5l-9,20c0,0,47,8,59-50C265.5,64.5,271.5,27.5,226,11z"/>
</g>
<g>
	<path d="M479.17,369.67c-1.11,0.1-2.32,0.19-3.63,0.29c-1.32,0.1-3.17,0.36-5.54,0.79c-2.38,0.43-4.19,1.53-5.42,3.29
		c-1.23,1.77-1.98,4.17-2.23,7.22l-0.26,6.87v83.54h-15.55l-60.54-86.97h-0.51v66.8l0.25,6.87c0.25,3.15,0.96,5.49,2.1,7.01
		c1.15,1.53,2.89,2.5,5.23,2.93c2.34,0.43,4.33,0.69,5.99,0.79c1.66,0.1,2.78,0.19,3.38,0.29v2.29h-36.83v-2.29
		c1.11-0.09,2.35-0.19,3.72-0.29c1.37-0.09,3.79-0.45,7.25-1.07c3.46-0.62,5.45-3.84,5.97-9.66l0.26-6.87v-65.09l-0.26-6.58
		c-1.11-2-2.44-3.86-3.98-5.58c-1.54-1.72-3.23-2.91-5.07-3.58c-1.84-0.67-3.61-1-5.33-1h-3.85v-2.29h48.75l45.82,65.8h0.51v-45.63
		l-0.25-6.87c-0.25-3.05-0.96-5.36-2.1-6.94c-1.15-1.57-2.87-2.58-5.16-3c-2.29-0.43-4.14-0.69-5.54-0.79
		c-1.4-0.09-2.7-0.19-3.89-0.29v-2.29h36.71V369.67z"/>
	<path d="M529.51,468.8c3.57-0.09,7.22-0.17,10.96-0.21c3.74-0.05,7.69-0.38,11.85-1c4.16-0.62,9.3-5.34,15.42-14.16
		c6.12-8.82,10.62-17.9,13.51-27.25h2.04v45.49H483.12v-2.29c1.1,0,2.38-0.07,3.82-0.21c1.44-0.14,3.08-0.33,4.91-0.57
		c1.83-0.24,3.23-0.95,4.21-2.15c0.98-1.19,1.59-3.31,1.85-6.37l0.25-6.58v-67.8l-0.25-6.58c-0.25-3.05-0.89-5.2-1.91-6.44
		c-1.02-1.24-2.44-2-4.27-2.29c-1.83-0.29-3.48-0.45-4.97-0.5c-1.49-0.05-2.83-0.12-4.01-0.21v-2.29h98.01v42.34h-2.04
		c-4.33-10.68-9.6-19.67-15.8-26.96c-6.2-7.3-11.41-11.18-15.61-11.66c-4.21-0.48-7.75-0.76-10.64-0.86
		c-2.89-0.09-4.8-0.14-5.74-0.14h-1.15l-0.25,46.92l5.35-0.29c4.93-0.57,8.65-3.17,11.15-7.8c2.5-4.62,3.76-10.08,3.76-16.38h2.42
		v52.07h-2.42c0-6.39-1.25-11.97-3.76-16.74c-2.51-4.77-6.23-7.44-11.15-8.01l-5.35-0.29V468.8z"/>
	<path d="M664.61,394.27l-5.23-15.16c-1.19-2.77-2.19-4.81-3-6.15c-0.81-1.33-2.53-2.24-5.16-2.72l-3.95-0.57v-2.29h56.08v2.29
		h-1.78c-0.6,0-1.7,0.17-3.31,0.5c-1.62,0.33-2.98,0.74-4.08,1.22c-1.11,0.48-1.66,1.91-1.66,4.29c0,2.2,0.57,5.25,1.72,9.16
		c1.15,3.91,2.49,8.27,4.01,13.09c1.53,4.82,3.52,11.04,5.99,18.67c2.46,7.63,4.25,13.16,5.35,16.59c1.1-3.24,2.44-7.15,4.01-11.73
		c1.57-4.58,3.74-11.04,6.5-19.38c2.76-8.34,4.57-14.07,5.42-17.17c0.85-3.1,1.28-5.79,1.28-8.08c0-2.19-0.51-3.77-1.53-4.72
		c-1.02-0.95-2.25-1.55-3.7-1.79c-1.45-0.24-2.8-0.38-4.08-0.43c-1.27-0.05-2.47-0.12-3.57-0.21v-2.29h32.88v2.29l-5.61,0.71
		c-2.72,0.48-4.85,1.34-6.38,2.58c-1.53,1.24-2.89,3.43-4.08,6.58l-3.83,11.01l-27.3,81.68h-10.2l-23.22-73.81l-24.36,73.81h-10.2
		l-26.02-81.97l-3.96-11.16c-1.28-3.05-2.45-5.22-3.51-6.51c-1.06-1.29-2.66-2.07-4.78-2.36l-4.46-0.57v-2.29h55.06v2.29l-4.08,0.43
		c-1.96,0.29-3.34,0.74-4.14,1.36c-0.81,0.62-1.21,1.79-1.21,3.5c0,2.1,0.7,5.46,2.1,10.08c1.4,4.63,3.16,10.23,5.29,16.81
		c2.12,6.58,4.04,12.4,5.74,17.45c1.7,5.06,3.1,9.25,4.21,12.59L664.61,394.27z"/>
	<path d="M827.12,441.05c0,9.44-3.55,17.19-10.66,23.25c-7.11,6.06-14.83,9.08-23.17,9.08c-7.32,0-14.55-2.6-21.7-7.8
		c-7.15-5.2-11.28-7.8-12.38-7.8c-2.81,0-4.55,1.19-5.23,3.58c-0.68,2.39-1.32,6.39-1.92,12.02h-2.17v-51.21h2.17
		c0.51,2,1.38,5.29,2.61,9.87c1.23,4.58,3.53,10.04,6.88,16.38c3.36,6.34,7.78,11.61,13.26,15.81c5.48,4.2,11.83,6.29,19.05,6.29
		c4.16,0,7.56-1.24,10.2-3.72c2.63-2.48,3.95-5.44,3.95-8.87c0-4.1-0.98-7.34-2.93-9.73c-1.96-2.38-5.48-4.7-10.58-6.94
		c-5.1-2.24-10.5-4.65-16.19-7.22c-5.69-2.58-11.73-6.05-18.1-10.44c-6.37-4.29-9.56-12.4-9.56-24.32c0-9.34,3.36-17.26,10.07-23.75
		c6.71-6.48,14.44-9.73,23.2-9.73c4.84,0,9.56,1.29,14.15,3.86l13.25,8.3c2.46,0,4.08-1.17,4.84-3.5c0.76-2.34,1.15-5.22,1.15-8.65
		h2.42v37.91h-2.29c-0.42-1.62-1.29-4.38-2.61-8.3c-1.31-3.91-3.86-8.3-7.63-13.16c-3.77-4.86-7.5-8.37-11.19-10.51
		c-3.69-2.15-8.12-3.22-13.28-3.22c-3.48,0-6.7,1.14-9.66,3.43c-2.97,2.29-4.45,5.15-4.45,8.58c0,3.63,1.12,6.65,3.38,9.08
		c2.25,2.43,4.84,4.36,7.78,5.79c2.93,1.43,6.99,3.24,12.17,5.44c5.18,2.19,10.56,4.75,16.12,7.65c5.56,2.91,10.13,7.15,13.7,12.73
		C825.33,426.82,827.12,433.42,827.12,441.05z"/>
</g>
<g>
	<path class="st2" d="M-383.5,322.49h18.76v101.95h-18.76v-14.68c-7.62,11.55-19.26,17.33-34.92,17.33
		c-12.65,0-22.78-3.77-30.4-11.32c-7.62-7.54-11.43-17.77-11.43-30.69v-62.59h18.76v61.58c0,8.29,2.37,14.71,7.11,19.27
		c4.74,4.56,11.28,6.83,19.62,6.83c9.34,0,16.89-2.75,22.64-8.26c5.75-5.5,8.62-13.97,8.62-25.38V322.49z"/>
	<path class="st2" d="M-276.79,319.84c15.09,0,27.95,5.2,38.59,15.6c10.63,10.4,15.95,23.07,15.95,38.03
		c0,14.95-5.32,27.63-15.95,38.03c-10.64,10.4-23.5,15.6-38.59,15.6c-17.82,0-31.4-6.73-40.74-20.18v58.31h-18.76V322.49h18.76
		v17.53C-308.19,326.57-294.61,319.84-276.79,319.84z M-279.16,409.96c10.78,0,19.83-3.5,27.16-10.5c7.33-7,10.99-15.66,10.99-26
		c0-10.33-3.66-18.99-10.99-26c-7.33-7-16.38-10.5-27.16-10.5c-10.92,0-20.05,3.5-27.38,10.5c-7.33,7-10.99,15.67-10.99,26
		c0,10.33,3.66,19,10.99,26C-299.21,406.46-290.08,409.96-279.16,409.96z"/>
	<path class="st2" d="M-110.58,281.71h18.76v142.72h-18.76V406.9c-9.34,13.46-22.93,20.18-40.75,20.18
		c-15.09,0-27.95-5.2-38.59-15.6c-10.64-10.4-15.95-23.07-15.95-38.03c0-14.95,5.32-27.63,15.95-38.03
		c10.63-10.4,23.5-15.6,38.59-15.6c17.82,0,31.4,6.73,40.75,20.18V281.71z M-148.95,409.96c10.92,0,20.05-3.5,27.38-10.5
		c7.33-7,11-15.66,11-26c0-10.33-3.67-18.99-11-26c-7.33-7-16.46-10.5-27.38-10.5c-10.78,0-19.83,3.5-27.16,10.5
		c-7.33,7-10.99,15.67-10.99,26c0,10.33,3.66,19,10.99,26C-168.78,406.46-159.73,409.96-148.95,409.96z"/>
	<path class="st2" d="M25.88,322.49h18.76v101.95H25.88V406.9c-9.34,13.46-22.93,20.18-40.75,20.18c-15.09,0-27.95-5.2-38.59-15.6
		c-10.64-10.4-15.95-23.07-15.95-38.03c0-14.95,5.32-27.63,15.95-38.03c10.63-10.4,23.5-15.6,38.59-15.6
		c17.82,0,31.4,6.73,40.75,20.18V322.49z M-12.49,409.96c10.92,0,20.05-3.5,27.38-10.5c7.33-7,10.99-15.66,10.99-26
		c0-10.33-3.67-18.99-10.99-26c-7.33-7-16.46-10.5-27.38-10.5c-10.78,0-19.83,3.5-27.16,10.5c-7.33,7-11,15.67-11,26
		c0,10.33,3.67,19,11,26C-32.32,406.46-23.27,409.96-12.49,409.96z"/>
	<path class="st2" d="M131.73,339.62h-28.67v55.25c0,5.03,1.04,8.6,3.13,10.7c2.08,2.11,5.28,3.2,9.59,3.26
		c4.31,0.07,9.63-0.03,15.95-0.31v15.9c-16.38,2.04-28.39,0.78-36-3.77c-7.62-4.55-11.43-13.15-11.43-25.79v-55.25H62.96v-17.13
		h21.34v-23.24l18.76-5.3v28.54h28.67V339.62z"/>
	<path class="st2" d="M161.7,381.62c1.87,9.11,6.29,16.18,13.26,21.21c6.97,5.03,15.56,7.54,25.76,7.54
		c14.23,0,24.58-4.96,31.04-14.88l15.95,8.56c-10.49,15.36-26.3,23.04-47.43,23.04c-17.11,0-31.01-5.06-41.71-15.19
		c-10.71-10.12-16.06-22.94-16.06-38.43c0-15.36,5.24-28.14,15.74-38.33c10.49-10.2,24.07-15.29,40.74-15.29
		c15.81,0,28.71,5.27,38.7,15.8c9.99,10.54,14.98,23.21,14.98,38.03c0,2.58-0.22,5.23-0.65,7.95H161.7z M198.99,336.56
		c-10.06,0-18.4,2.69-25.01,8.05c-6.61,5.37-10.71,12.54-12.29,21.51h72c-1.58-9.65-5.61-16.99-12.07-22.02
		C215.16,339.08,207.62,336.56,198.99,336.56z"/>
</g>
<g>
	<path class="st2" d="M-68.33-203.24c0,5.45,2.83,9.83,8.5,13.12c5.66,3.29,12.41,6.09,20.25,8.39c7.83,2.3,15.72,4.62,23.64,6.95
		c7.93,2.33,14.64,6.69,20.13,13.09c5.49,6.4,8.24,14.62,8.24,24.65c0,13.08-5.05,23.56-15.14,31.44
		c-10.1,7.89-23.03,11.83-38.8,11.83c-14.04,0-26.06-3.08-36.06-9.23c-10-6.15-17.12-14.32-21.34-24.52l21.63-12.4
		c2.31,6.92,6.63,12.4,12.98,16.44s13.94,6.06,22.79,6.06c8.27,0,15.09-1.58,20.48-4.75c5.38-3.17,8.08-8.11,8.08-14.83
		c0-5.57-2.79-10.03-8.37-13.39c-5.58-3.36-12.29-6.21-20.13-8.57c-7.84-2.35-15.72-4.72-23.64-7.1
		c-7.93-2.38-14.68-6.64-20.25-12.8c-5.58-6.15-8.36-14.03-8.36-23.65c0-12.5,4.85-22.79,14.57-30.86
		c9.71-8.08,21.87-12.12,36.49-12.12c11.73,0,22.16,2.65,31.3,7.93c9.13,5.29,16.01,12.65,20.62,22.07l-21.06,11.83
		c-5.19-12.3-15.48-18.46-30.86-18.46c-7.12,0-13.17,1.64-18.17,4.93C-65.83-213.91-68.33-209.26-68.33-203.24z"/>
	<path class="st2" d="M55.7-158.1c2.5,12.88,8.41,22.89,17.74,30c9.32,7.12,20.81,10.67,34.47,10.67c19.04,0,32.88-7.02,41.54-21.06
		l21.34,12.12c-14.04,21.73-35.19,32.59-63.46,32.59c-22.89,0-41.49-7.16-55.81-21.49c-14.33-14.32-21.49-32.45-21.49-54.37
		c0-21.73,7.02-39.8,21.06-54.23c14.03-14.42,32.21-21.63,54.52-21.63c21.15,0,38.41,7.46,51.78,22.35
		c13.36,14.9,20.05,32.84,20.05,53.79c0,3.66-0.29,7.41-0.87,11.25H55.7z M105.6-221.85c-13.46,0-24.62,3.8-33.46,11.39
		c-8.85,7.6-14.33,17.74-16.44,30.43h96.34c-2.12-13.65-7.5-24.04-16.15-31.15C127.23-218.29,117.14-221.85,105.6-221.85z"/>
	<path class="st2" d="M231.36-217.52c8.27-17.88,23.27-26.83,45-26.83v26.25c-12.31-0.58-22.89,2.7-31.73,9.81
		c-8.85,7.12-13.27,18.56-13.27,34.33v76.44h-25.09v-144.22h25.09V-217.52z"/>
	<path class="st2" d="M313.56-268c-4.81,0-8.85-1.63-12.11-4.9c-3.27-3.27-4.9-7.21-4.9-11.83s1.63-8.6,4.9-11.97
		c3.27-3.36,7.31-5.05,12.11-5.05c4.62,0,8.55,1.69,11.83,5.05c3.27,3.37,4.9,7.36,4.9,11.97s-1.64,8.56-4.9,11.83
		C322.11-269.63,318.18-268,313.56-268z M300.87-97.53v-144.22h25.09v144.22H300.87z"/>
	<path class="st2" d="M381.92-158.1c2.5,12.88,8.41,22.89,17.74,30c9.33,7.12,20.81,10.67,34.47,10.67
		c19.04,0,32.88-7.02,41.54-21.06L497-126.37c-14.04,21.73-35.19,32.59-63.46,32.59c-22.89,0-41.49-7.16-55.81-21.49
		c-14.33-14.32-21.49-32.45-21.49-54.37c0-21.73,7.02-39.8,21.06-54.23c14.04-14.42,32.21-21.63,54.52-21.63
		c21.15,0,38.41,7.46,51.78,22.35c13.36,14.9,20.05,32.84,20.05,53.79c0,3.66-0.29,7.41-0.87,11.25H381.92z M431.82-221.85
		c-13.46,0-24.62,3.8-33.46,11.39c-8.85,7.6-14.33,17.74-16.44,30.43h96.34c-2.12-13.65-7.5-24.04-16.15-31.15
		C453.45-218.29,443.36-221.85,431.82-221.85z"/>
	<path class="st2" d="M548.35-203.24c0,5.45,2.83,9.83,8.5,13.12c5.66,3.29,12.41,6.09,20.25,8.39c7.83,2.3,15.72,4.62,23.64,6.95
		c7.93,2.33,14.64,6.69,20.13,13.09c5.49,6.4,8.24,14.62,8.24,24.65c0,13.08-5.05,23.56-15.14,31.44
		c-10.09,7.89-23.03,11.83-38.79,11.83c-14.04,0-26.06-3.08-36.05-9.23c-10-6.15-17.12-14.32-21.34-24.52l21.63-12.4
		c2.31,6.92,6.63,12.4,12.98,16.44s13.94,6.06,22.79,6.06c8.27,0,15.09-1.58,20.48-4.75c5.38-3.17,8.08-8.11,8.08-14.83
		c0-5.57-2.79-10.03-8.37-13.39c-5.58-3.36-12.29-6.21-20.13-8.57c-7.84-2.35-15.72-4.72-23.64-7.1
		c-7.93-2.38-14.68-6.64-20.25-12.8c-5.58-6.15-8.37-14.03-8.37-23.65c0-12.5,4.85-22.79,14.57-30.86
		c9.71-8.08,21.87-12.12,36.49-12.12c11.73,0,22.16,2.65,31.3,7.93c9.13,5.29,16.01,12.65,20.62,22.07l-21.06,11.83
		c-5.19-12.3-15.48-18.46-30.86-18.46c-7.12,0-13.17,1.64-18.17,4.93C550.84-213.91,548.35-209.26,548.35-203.24z"/>
</g>
<text transform="matrix(1 0 0 1 648.6152 -93.3076)" class="st2" style="font-family:'Gilroy-Medium'; font-size:12px;">Lorem ipsum</text>
<g>
	<path class="st2" d="M-437.84-422.99c13.34,0,24.7,4.86,34.11,14.58c9.4,9.72,14.1,21.56,14.1,35.54c0,13.97-4.7,25.82-14.1,35.54
		c-9.4,9.72-20.77,14.58-34.11,14.58c-15.75,0-27.76-6.29-36.01-18.86v54.49h-16.58v-133.38h16.58v16.39
		C-465.59-416.7-453.59-422.99-437.84-422.99z M-439.93-338.77c9.53,0,17.53-3.27,24.01-9.81c6.48-6.54,9.72-14.64,9.72-24.29
		c0-9.65-3.24-17.75-9.72-24.29c-6.48-6.54-14.48-9.81-24.01-9.81c-9.65,0-17.72,3.27-24.2,9.81c-6.48,6.54-9.72,14.64-9.72,24.29
		c0,9.66,3.24,17.75,9.72,24.29C-457.65-342.04-449.59-338.77-439.93-338.77z"/>
	<path class="st2" d="M-353.24-404.51c5.46-11.81,15.37-17.72,29.72-17.72v17.34c-8.13-0.38-15.12,1.78-20.96,6.48
		c-5.84,4.7-8.76,12.26-8.76,22.67v50.49h-16.58v-95.27h16.58V-404.51z"/>
	<path class="st2" d="M-232.06-337.25c-9.78,9.66-21.66,14.48-35.63,14.48c-13.98,0-25.82-4.83-35.54-14.48
		c-9.72-9.65-14.58-21.53-14.58-35.63c0-14.1,4.86-25.98,14.58-35.63c9.72-9.65,21.56-14.48,35.54-14.48
		c13.97,0,25.85,4.83,35.63,14.48c9.78,9.65,14.67,21.53,14.67,35.63C-217.39-358.78-222.28-346.9-232.06-337.25z M-267.69-338.96
		c9.53,0,17.53-3.24,24.01-9.72c6.48-6.48,9.72-14.54,9.72-24.2c0-9.65-3.24-17.72-9.72-24.2c-6.48-6.48-14.48-9.72-24.01-9.72
		c-9.4,0-17.34,3.24-23.82,9.72s-9.72,14.55-9.72,24.2c0,9.66,3.24,17.72,9.72,24.2C-285.03-342.2-277.09-338.96-267.69-338.96z"/>
	<path class="st2" d="M-118.69-420.51h16.39v91.27c0,14.1-4.76,25.06-14.29,32.87c-9.53,7.81-20.96,11.72-34.3,11.72
		c-10.67,0-19.88-2-27.63-6c-7.75-4-13.59-9.75-17.53-17.24l14.48-8.19c5.21,10.67,15.56,16.01,31.06,16.01
		c9.91,0,17.69-2.61,23.34-7.81c5.65-5.21,8.48-12.32,8.48-21.34v-13.53c-8.38,12.7-20.33,19.05-35.82,19.05
		c-13.59,0-25.09-4.83-34.49-14.48c-9.4-9.65-14.1-21.4-14.1-35.25c0-13.84,4.7-25.56,14.1-35.15c9.4-9.59,20.89-14.39,34.49-14.39
		c15.62,0,27.56,6.29,35.82,18.86V-420.51z M-176.8-349.25c6.48,6.48,14.54,9.72,24.2,9.72c9.65,0,17.72-3.24,24.2-9.72
		c6.48-6.48,9.72-14.54,9.72-24.2c0-9.53-3.24-17.53-9.72-24.01c-6.48-6.48-14.55-9.72-24.2-9.72c-9.65,0-17.72,3.24-24.2,9.72
		s-9.72,14.48-9.72,24.01C-186.52-363.79-183.28-355.73-176.8-349.25z"/>
	<path class="st2" d="M-60.58-404.51c5.46-11.81,15.37-17.72,29.72-17.72v17.34c-8.13-0.38-15.12,1.78-20.96,6.48
		c-5.84,4.7-8.76,12.26-8.76,22.67v50.49h-16.58v-95.27h16.58V-404.51z"/>
	<path class="st2" d="M59.08-420.51h16.58v95.27H59.08v-16.39c-8.26,12.58-20.26,18.86-36.01,18.86c-13.34,0-24.71-4.86-34.11-14.58
		c-9.4-9.72-14.1-21.56-14.1-35.54c0-13.97,4.7-25.82,14.1-35.54c9.4-9.72,20.77-14.58,34.11-14.58c15.75,0,27.75,6.29,36.01,18.86
		V-420.51z M25.17-338.77c9.65,0,17.72-3.27,24.2-9.81c6.48-6.54,9.72-14.64,9.72-24.29c0-9.65-3.24-17.75-9.72-24.29
		c-6.48-6.54-14.55-9.81-24.2-9.81c-9.53,0-17.53,3.27-24.01,9.81c-6.48,6.54-9.72,14.64-9.72,24.29c0,9.66,3.24,17.75,9.72,24.29
		C7.64-342.04,15.64-338.77,25.17-338.77z"/>
	<path class="st2" d="M203.7-422.99c10.67,0,19.31,3.46,25.91,10.38c6.6,6.92,9.91,16.29,9.91,28.1v59.26h-16.58v-58.69
		c0-7.37-1.91-13.08-5.72-17.15c-3.81-4.06-8.89-6.1-15.24-6.1c-7.12,0-12.8,2.38-17.05,7.15c-4.26,4.76-6.38,12.04-6.38,21.82
		v52.97h-16.58v-58.69c0-7.37-1.81-13.08-5.43-17.15c-3.62-4.06-8.54-6.1-14.77-6.1c-6.99,0-12.8,2.42-17.43,7.24
		c-4.64,4.83-6.95,12.07-6.95,21.72v52.97h-16.58v-95.27h16.58v12.77c6.48-10.16,15.94-15.24,28.39-15.24
		c12.83,0,22.17,5.4,28.01,16.2C180.39-417.59,190.36-422.99,203.7-422.99z"/>
</g>
<g>
	<path class="st2" d="M-431.42-32.61c7.15,0,12.58,2.28,16.29,6.84c3.7,4.56,4.9,10.67,3.6,18.33l-6.62,37.55h-10.55l6.51-36.92
		c0.9-5.05,0.28-8.93-1.84-11.62c-2.12-2.69-5.64-4.04-10.55-4.04c-5.23,0-9.81,1.65-13.74,4.94c-3.92,3.3-6.46,8.36-7.6,15.2
		l0.02-0.12l-5.77,32.56h-10.55l10.84-61.13h10.55l-1.43,8.08C-446.99-29.39-440.04-32.61-431.42-32.61z"/>
	<path class="st2" d="M-364.76-32.61c9.21,0,16.28,3.16,21.21,9.48c4.93,6.32,6.54,13.92,4.83,22.8c-0.16,1.3-0.57,2.89-1.22,4.77
		h-51.11c0,5.46,1.69,9.7,5.07,12.72c3.38,3.02,7.89,4.52,13.51,4.52c8.23,0,14.71-3.01,19.44-9.05l7.95,5.75
		c-3.1,4.24-7.2,7.52-12.29,9.84c-5.09,2.32-10.54,3.49-16.32,3.49c-9.62,0-16.99-3.22-22.13-9.66c-5.14-6.44-6.89-14.35-5.26-23.72
		c1.55-8.88,5.75-16.26,12.59-22.13C-381.64-29.68-373.73-32.61-364.76-32.61z M-389.46-4.98h40.71c0.24-5.79-1.18-10.17-4.28-13.14
		c-3.1-2.97-7.21-4.46-12.35-4.46c-5.71,0-10.7,1.57-14.98,4.71C-384.63-14.74-387.67-10.44-389.46-4.98z"/>
	<path class="st2" d="M-252.77-31.02h11.62l-29.83,61.13h-10.88l-6.38-45.65l-21.86,45.65h-11.79l-7.65-61.13h10.49l5.67,46.59
		l22.24-46.59h10.32l0.24,0.24l6.36,46.33L-252.77-31.02z"/>
	<path class="st2" d="M-221.96,31.7c-6.03,0-10.99-1.33-14.85-3.97c-3.87-2.65-6.54-6.25-8.01-10.82l9.54-4.89
		c0.65,2.85,2.22,5.18,4.71,6.97c2.49,1.79,5.64,2.69,9.48,2.69c3.59,0,6.58-0.7,8.99-2.09c2.4-1.39,3.85-3.4,4.34-6.02
		c0.33-1.8-0.04-3.32-1.09-4.54s-2.53-2.2-4.44-2.92c-1.91-0.72-4.01-1.51-6.3-2.38c-2.29-0.86-4.6-1.73-6.93-2.61
		c-2.33-0.88-4.39-1.97-6.18-3.27c-1.79-1.3-3.14-3.12-4.04-5.44c-0.9-2.32-1.06-5.03-0.49-8.13c0.9-4.97,3.52-9.03,7.89-12.17
		c4.36-3.14,9.48-4.71,15.35-4.71c10.43,0,17.52,4.24,21.27,12.72l-9.41,4.89c-1.62-5.14-5.7-7.7-12.24-7.7
		c-2.83,0-5.42,0.66-7.78,1.96c-2.36,1.31-3.78,3.27-4.27,5.89c-0.41,2.38,0.43,4.28,2.51,5.71c2.08,1.43,4.72,2.69,7.92,3.79
		c3.2,1.1,6.4,2.2,9.6,3.3c3.2,1.1,5.71,3.06,7.53,5.87c1.82,2.81,2.37,6.41,1.63,10.78c-0.98,5.46-3.67,9.67-8.07,12.65
		C-209.73,30.21-215.27,31.7-221.96,31.7z"/>
	<path class="st2" d="M-419.21,40.98h10.55l-10.84,61.13h-10.55l1.43-8.08c-5.29,6.45-12.26,9.67-20.9,9.67
		c-7.17,0-12.61-2.28-16.32-6.85c-3.71-4.57-4.91-10.68-3.6-18.34l6.62-37.53h10.55l-6.51,36.91c-0.9,5.06-0.28,8.94,1.85,11.63
		c2.13,2.69,5.65,4.04,10.57,4.04c5.24,0,9.83-1.65,13.77-4.94c3.93-3.29,6.47-8.36,7.62-15.2l-0.02,0.12L-419.21,40.98z"/>
	<path class="st2" d="M-359.09,39.39c8.64,0,15.49,3.32,20.54,9.96c5.05,6.64,6.8,14.45,5.26,23.41
		c-1.63,9.37-5.73,16.87-12.29,22.5c-6.56,5.62-14,8.44-22.31,8.44c-5.05,0-9.6-1.15-13.63-3.44c-4.03-2.29-7.06-5.56-9.1-9.81
		l-6.31,36.11l-10.56,0.01l14.97-85.6h10.55l-1.58,9.03C-377.19,42.93-369.04,39.39-359.09,39.39z M-343.92,72.03
		c1.06-6.28-0.12-11.57-3.55-15.9c-3.42-4.32-8.23-6.48-14.43-6.48c-6.2,0-11.7,2-16.51,6c-4.81,4-7.74,9.09-8.8,15.29
		c-1.22,7.01,0.02,12.5,3.73,16.5c3.71,3.99,8.62,5.99,14.73,5.99c5.79,0,11.08-1.9,15.89-5.69
		C-348.04,83.95-345.07,78.72-343.92,72.03z"/>
	<path class="st2" d="M-259.78,16.52h10.55l-15.12,85.59h-10.55l1.56-8.8c-6.44,6.93-14.63,10.39-24.58,10.39
		c-8.72,0-15.59-3.34-20.6-10.03c-5.01-6.68-6.71-14.51-5.07-23.47c1.63-9.37,5.75-16.85,12.35-22.44
		c6.6-5.58,14.06-8.38,22.38-8.38c5.05,0,9.59,1.14,13.61,3.42c4.02,2.28,7.06,5.49,9.14,9.64L-259.78,16.52z M-309.39,86.95
		c3.46,4.32,8.29,6.48,14.49,6.48c6.19,0,11.7-2.01,16.51-6.03c4.81-4.02,7.74-9.12,8.8-15.3c1.22-6.95-0.02-12.42-3.73-16.43
		c-3.71-4-8.58-6.01-14.61-6.01c-5.87,0-11.21,1.89-16.02,5.69c-4.81,3.79-7.79,9.03-8.93,15.71
		C-314.02,77.33-312.86,82.63-309.39,86.95z"/>
	<path class="st2" d="M-186.54,40.98h10.55l-10.84,61.13h-10.55l1.54-8.68c-6.36,6.85-14.51,10.27-24.45,10.27
		c-8.72,0-15.59-3.34-20.6-10.03c-5.01-6.68-6.71-14.51-5.07-23.47c1.63-9.37,5.75-16.85,12.35-22.44
		c6.6-5.58,14.06-8.38,22.38-8.38c5.05,0,9.56,1.11,13.54,3.32c3.97,2.21,7.03,5.37,9.18,9.48L-186.54,40.98z M-231.71,86.95
		c3.46,4.32,8.29,6.48,14.49,6.48c6.19,0,11.68-2.02,16.45-6.07c4.77-4.05,7.68-9.18,8.74-15.39c1.3-6.91,0.1-12.35-3.61-16.33
		c-3.71-3.98-8.62-5.97-14.73-5.97c-5.79,0-11.09,1.89-15.9,5.69c-4.81,3.79-7.78,9.03-8.92,15.71
		C-236.34,77.33-235.18,82.63-231.71,86.95z"/>
	<path class="st2" d="M-144.68,51.25l-5.84,33.12c-0.57,2.94-0.32,5.06,0.73,6.37c1.06,1.31,2.79,1.98,5.2,2.02
		c2.4,0.04,5.4-0.02,8.99-0.18l-1.71,9.54c-9.05,1.22-15.59,0.43-19.64-2.38c-4.05-2.81-5.42-7.93-4.12-15.34l5.84-33.13h-12.11
		l1.96-10.27h11.96l2.46-13.92l11.12-3.2l-3.02,17.12h16.38l-1.83,10.27H-144.68z"/>
	<path class="st2" d="M-89.18,39.39c9.21,0,16.28,3.16,21.21,9.48c4.93,6.32,6.54,13.92,4.83,22.8c-0.17,1.3-0.57,2.89-1.22,4.77
		h-51.11c0,5.46,1.69,9.7,5.07,12.72c3.38,3.02,7.89,4.52,13.51,4.52c8.23,0,14.71-3.01,19.44-9.05l7.95,5.75
		c-3.1,4.24-7.19,7.52-12.29,9.84c-5.09,2.32-10.54,3.49-16.32,3.49c-9.62,0-17-3.22-22.13-9.66c-5.14-6.44-6.89-14.35-5.26-23.72
		c1.55-8.88,5.75-16.26,12.59-22.13C-106.05,42.32-98.15,39.39-89.18,39.39z M-113.88,67.02h40.71c0.24-5.79-1.18-10.17-4.28-13.14
		c-3.1-2.97-7.21-4.46-12.35-4.46c-5.71,0-10.7,1.57-14.98,4.71C-109.05,57.26-112.08,61.56-113.88,67.02z"/>
</g>
<g>
	<path d="M291.25,46.88c1.24-6.77,3.96-11.83,8.18-15.18c4.22-3.35,9.8-4.79,16.76-4.34l-1.58,8.27
		c-8.4-0.72-13.36,3.02-14.87,11.23l-0.26,1.48h13l-1.48,8.27h-13l-7.3,40.96h-8.5l7.3-40.96h-7.98l1.48-8.27h7.97L291.25,46.88z"/>
	<path d="M338.64,47.06c7.42,0,13.11,2.54,17.09,7.63c3.97,5.09,5.27,11.21,3.89,18.37c-0.13,1.05-0.46,2.33-0.99,3.84h-41.16
		c0,4.4,1.36,7.81,4.09,10.24c2.72,2.43,6.35,3.64,10.88,3.64c6.63,0,11.85-2.43,15.66-7.29l6.4,4.63c-2.5,3.41-5.79,6.06-9.9,7.93
		c-4.1,1.87-8.49,2.81-13.15,2.81c-7.75,0-13.69-2.59-17.82-7.78c-4.14-5.19-5.55-11.55-4.23-19.1c1.25-7.15,4.63-13.1,10.14-17.82
		C325.05,49.42,331.42,47.06,338.64,47.06z M318.75,69.32h32.79c0.2-4.66-0.95-8.19-3.45-10.59c-2.5-2.4-5.81-3.59-9.95-3.59
		c-4.6,0-8.62,1.26-12.06,3.79C322.64,61.46,320.19,64.92,318.75,69.32z"/>
	<path d="M414.63,48.34h8.5l-8.73,49.24h-8.5l1.24-6.99c-5.12,5.51-11.69,8.27-19.69,8.27c-7.03,0-12.56-2.69-16.59-8.08
		c-4.04-5.38-5.4-11.68-4.09-18.91c1.31-7.55,4.63-13.57,9.95-18.07c5.32-4.5,11.32-6.75,18.02-6.75c4.07,0,7.7,0.89,10.9,2.68
		c3.2,1.78,5.66,4.33,7.4,7.63L414.63,48.34z M378.25,85.37c2.79,3.48,6.68,5.22,11.67,5.22c4.99,0,9.4-1.63,13.25-4.89
		c3.84-3.26,6.19-7.39,7.04-12.4c1.05-5.56,0.08-9.95-2.91-13.16c-2.99-3.21-6.94-4.81-11.87-4.81c-4.66,0-8.93,1.53-12.8,4.58
		c-3.87,3.05-6.27,7.27-7.19,12.65C374.52,77.62,375.46,81.89,378.25,85.37z"/>
	<path d="M448.35,56.61l-4.7,26.67c-0.46,2.37-0.26,4.08,0.59,5.13c0.85,1.05,2.25,1.59,4.18,1.63c1.94,0.03,4.35-0.02,7.24-0.15
		l-1.38,7.68c-7.29,0.98-12.56,0.34-15.82-1.92c-3.26-2.27-4.37-6.38-3.32-12.36l4.71-26.69h-9.75l1.58-8.27h9.63l1.98-11.21
		l8.96-2.58l-2.43,13.79H463l-1.48,8.27H448.35z"/>
	<path d="M507.49,48.34h8.5l-8.73,49.24h-8.5l1.15-6.51c-4.26,5.19-9.88,7.79-16.83,7.79c-5.78,0-10.16-1.84-13.14-5.51
		c-2.99-3.68-3.96-8.6-2.9-14.77l5.33-30.23h8.5l-5.24,29.72c-0.72,4.08-0.23,7.2,1.49,9.37c1.71,2.17,4.55,3.25,8.51,3.25
		c4.22,0,7.92-1.33,11.09-3.98c3.17-2.65,5.21-6.73,6.14-12.24l-0.02,0.1L507.49,48.34z"/>
	<path d="M536.28,55.53c4.14-5.58,9.75-8.27,16.84-8.07l-1.58,8.96c-4.2-0.13-8.03,1-11.49,3.39c-3.46,2.39-5.66,6.28-6.6,11.65
		l0.01-0.1l-4.65,26.22h-8.5l8.73-49.24h8.5L536.28,55.53z"/>
	<path d="M581.87,47.06c7.42,0,13.11,2.54,17.09,7.63c3.97,5.09,5.27,11.21,3.89,18.37c-0.13,1.05-0.46,2.33-0.99,3.84H560.7
		c0,4.4,1.36,7.81,4.09,10.24c2.72,2.43,6.35,3.64,10.88,3.64c6.63,0,11.85-2.43,15.66-7.29l6.4,4.63c-2.5,3.41-5.79,6.06-9.9,7.93
		c-4.1,1.87-8.49,2.81-13.15,2.81c-7.75,0-13.69-2.59-17.82-7.78c-4.14-5.19-5.55-11.55-4.23-19.1c1.25-7.15,4.63-13.1,10.14-17.82
		C568.28,49.42,574.65,47.06,581.87,47.06z M561.98,69.32h32.79c0.2-4.66-0.95-8.19-3.45-10.59c-2.5-2.4-5.81-3.59-9.95-3.59
		c-4.6,0-8.62,1.26-12.06,3.79C565.87,61.46,563.42,64.92,561.98,69.32z"/>
	<path d="M661.41,28.65h8.5l-12.18,68.93h-8.5l1.25-7.09c-5.19,5.58-11.78,8.37-19.79,8.37c-7.03,0-12.56-2.69-16.59-8.08
		c-4.04-5.38-5.4-11.68-4.09-18.91c1.31-7.55,4.63-13.57,9.95-18.07c5.32-4.5,11.32-6.75,18.02-6.75c4.07,0,7.72,0.92,10.96,2.75
		c3.24,1.84,5.69,4.42,7.36,7.77L661.41,28.65z M621.45,85.37c2.79,3.48,6.68,5.22,11.67,5.22c4.99,0,9.42-1.62,13.29-4.86
		c3.87-3.24,6.24-7.35,7.09-12.32c0.99-5.59-0.02-10.01-3-13.23c-2.99-3.23-6.91-4.84-11.77-4.84c-4.73,0-9.03,1.53-12.9,4.58
		c-3.87,3.05-6.27,7.27-7.19,12.65C617.72,77.62,618.65,81.89,621.45,85.37z"/>
</g>
</svg>
