<?xml version="1.0" encoding="utf-8"?>
<!-- Generator: Adobe Illustrator 27.9.2, SVG Export Plug-In . SVG Version: 6.00 Build 0)  -->
<svg version="1.1" id="Layer_1" xmlns="http://www.w3.org/2000/svg" xmlns:xlink="http://www.w3.org/1999/xlink" x="0px" y="0px"
	 viewBox="0 0 582.92 144.27" style="enable-background:new 0 0 582.92 144.27;" xml:space="preserve">
<style type="text/css">
	.st0{fill:#FFFFFF;stroke:url(#SVGID_1_);stroke-miterlimit:10;}
	.st1{fill:#FFFFFF;stroke:url(#SVGID_00000077289593298016261410000006059110620579334787_);stroke-miterlimit:10;}
	.st2{fill:url(#SVGID_00000162331765383642083990000008721277233809551523_);stroke:#000000;stroke-miterlimit:10;}
	.st3{fill:url(#SVGID_00000147207204564761669820000002951433396276714894_);stroke:#000000;stroke-miterlimit:10;}
	.st4{fill:url(#SVGID_00000179610381202867119400000007603216038620403872_);stroke:#000000;stroke-miterlimit:10;}
</style>
<g>
	<g>
		<path d="M27.41,136.4L6.14,54.65h20.95l11.72,51.5l13.57-51.5h15.3l13.57,51.5l11.83-51.5h20.84L92.75,136.4H72.24L60.08,90.27
			L47.92,136.4H27.41z"/>
		<path d="M148,76.37c5.86,0,10.65,2.16,14.38,6.48c3.73,4.32,5.59,10.53,5.59,18.63v34.92h-18.02v-32.47
			c0-3.04-0.74-5.33-2.23-6.89c-1.48-1.56-3.46-2.34-5.92-2.34c-2.82,0-5.01,0.92-6.57,2.74c-1.56,1.83-2.33,4.46-2.33,7.88v31.06
			h-18.02V54.65h18.02v29.2C136.17,78.86,141.2,76.37,148,76.37z"/>
		<path d="M213.23,78.01h18.02v58.39h-18.02v-5.37c-3.69,4.67-8.83,7.01-15.41,7.01c-7.24,0-13.3-2.94-18.18-8.82
			c-4.88-5.88-7.33-13.21-7.33-22.01c0-8.8,2.44-16.13,7.33-22.01c4.88-5.88,10.94-8.82,18.18-8.82c6.58,0,11.72,2.34,15.41,7.01
			V78.01z M193.59,116.43c2.1,2.34,4.85,3.5,8.25,3.5c3.4,0,6.15-1.17,8.25-3.5c2.1-2.34,3.15-5.41,3.15-9.23
			c0-3.81-1.05-6.89-3.15-9.23c-2.1-2.33-4.85-3.5-8.25-3.5c-3.4,0-6.15,1.17-8.25,3.5c-2.1,2.34-3.15,5.41-3.15,9.23
			C190.44,111.02,191.49,114.09,193.59,116.43z"/>
		<path d="M272.6,96.57h-11.29v16.93c0,2.57,0.87,4.17,2.6,4.79c1.74,0.62,4.63,0.82,8.68,0.58v17.52
			c-10.78,1.4-18.36,0.33-22.74-3.21c-4.38-3.54-6.57-9.94-6.57-19.21v-17.4h-8.14V78.01h8.14V67.5l18.02-5.84v16.35h11.29V96.57z"
			/>
		<path d="M303.21,54.65l-9.12,36.67h-14.54l3.8-36.67H303.21z"/>
		<path d="M318.85,94.81c0,0.99,0.95,1.82,2.84,2.47c1.89,0.66,4.1,1.42,6.61,2.28c2.51,0.87,5.13,1.77,7.85,2.71
			c2.72,0.94,5,2.81,6.85,5.6c1.84,2.8,2.77,6.31,2.77,10.54c0,6.7-2.33,11.64-6.99,14.83c-4.66,3.19-10.19,4.79-16.58,4.79
			c-12.16,0-20.26-4.63-24.31-13.9l15.74-8.52c1.37,4.28,4.2,6.42,8.47,6.42c3.26,0,4.88-1.04,4.88-3.12c0-1.08-0.92-1.96-2.77-2.64
			c-1.85-0.68-4.02-1.48-6.52-2.4c-2.5-0.92-5.08-1.87-7.75-2.86c-2.67-0.99-4.91-2.78-6.72-5.39c-1.81-2.61-2.71-5.82-2.71-9.63
			c0-6.23,2.14-11.05,6.44-14.48c4.29-3.43,9.46-5.14,15.5-5.14c10.71,0,18.16,4.52,22.36,13.55l-15.19,7.36
			c-1.59-3.35-3.84-5.02-6.73-5.02C320.18,92.25,318.85,93.1,318.85,94.81z"/>
	</g>
	<g>
	</g>
	<g>
		<linearGradient id="SVGID_1_" gradientUnits="userSpaceOnUse" x1="354.0817" y1="92.0725" x2="432.1185" y2="92.0725">
			<stop  offset="0" style="stop-color:#FFF33B"/>
			<stop  offset="0.0595" style="stop-color:#FFE029"/>
			<stop  offset="0.1303" style="stop-color:#FFD217"/>
			<stop  offset="0.2032" style="stop-color:#FEC90E"/>
			<stop  offset="0.2809" style="stop-color:#FDC70C"/>
			<stop  offset="0.6685" style="stop-color:#F3903F"/>
			<stop  offset="0.8876" style="stop-color:#ED683C"/>
			<stop  offset="1" style="stop-color:#E93E3A"/>
		</linearGradient>
		<path style="fill:url(#SVGID_1_);stroke:#000000;stroke-miterlimit:10;" d="M354.08,45.28c0.55-0.18,1.1-0.51,1.66-0.51
			c9.49-0.03,18.98-0.02,28.92-0.02c0,1.09,0,2.06,0,3.03c0,8.73,0.06,17.47-0.03,26.2c-0.02,2.14,0.69,2.78,2.79,2.69
			c3.64-0.16,7.28-0.02,10.93-0.04c0.82,0,1.64-0.15,2.8-0.27c0-10.58,0-20.98,0-31.47c9.88,0,19.39,0,29.48,0
			c-0.95,1.31-1.61,2.25-2.3,3.15c-7.04,9.2-10.65,19.64-11.67,31.13c-0.71,7.97-0.85,15.9,0.78,23.75
			c2.01,9.73,6.6,18.21,13.14,25.65c1.03,1.17,2.1,8.82,1.23,9.94c-0.38,0.49-1.3,0.78-1.98,0.79c-8.99,0.08-17.97,0.1-26.96,0.1
			c-2.1,0-1.79-1.65-1.79-2.96c-0.03-8.73-0.02-17.46-0.03-26.19c0-5.81,0-5.82-5.82-5.86c-2.63-0.02-5.27,0.15-7.88-0.06
			c-2.29-0.19-2.69,0.82-2.67,2.8c0.07,9.07,0.05,18.15,0.04,27.22c-0.01,5.93,0.52,4.98-4.98,5.02c-7.46,0.05-14.92,0.03-22.39,0
			c-1.08,0-2.17-0.27-3.25-0.41C354.08,107.73,354.08,76.51,354.08,45.28z"/>
		
			<linearGradient id="SVGID_00000062157582455781455250000007184716969375252352_" gradientUnits="userSpaceOnUse" x1="419.7477" y1="72.1339" x2="525.9757" y2="72.1339">
			<stop  offset="0" style="stop-color:#FFF33B"/>
			<stop  offset="0.0595" style="stop-color:#FFE029"/>
			<stop  offset="0.1303" style="stop-color:#FFD217"/>
			<stop  offset="0.2032" style="stop-color:#FEC90E"/>
			<stop  offset="0.2809" style="stop-color:#FDC70C"/>
			<stop  offset="0.6685" style="stop-color:#F3903F"/>
			<stop  offset="0.8876" style="stop-color:#ED683C"/>
			<stop  offset="1" style="stop-color:#E93E3A"/>
		</linearGradient>
		<path style="fill:url(#SVGID_00000062157582455781455250000007184716969375252352_);stroke:#000000;stroke-miterlimit:10;" d="
			M477.86,0c-0.13,1.28-0.13,2.31-0.35,3.28c-2.45,10.62,0.49,19.83,8.18,27.15c5.62,5.35,12.02,9.88,18.17,14.66
			c9.64,7.5,16.66,16.83,19.83,28.71c6.02,22.59,0.16,44-17.21,58.35c-22.1,18.26-54.47,15.56-73.37-5.89
			c-8.86-10.05-13.39-21.77-13.35-35.23c0.03-10.39,0.71-20.74,5.31-30.23c2.34-4.82,5.74-9.11,8.72-13.61
			c0.44-0.66,1.18-1.12,2.31-2.15c0.19,2.68,0.34,4.74,0.48,6.8c0.54,8.08,2.37,15.72,7.79,22.07c0.83,0.97,1.84,1.78,2.77,2.67
			c0.19-0.13,0.38-0.27,0.58-0.4c-0.41-3.49-0.9-6.96-1.23-10.46c-1.66-17.9,0.89-34.82,11.86-49.7
			C463.26,9.33,471.32,2.76,477.86,0z M486.27,54.23c6.13,9.32,9.07,19.35,6.76,30.26c-2.47,11.68-12.07,24.79-17.77,24.83
			c2.13-6.57,5.06-13.01,3.08-20.23c-5.89,14.1-16.3,22.64-31.14,25.8c4.67,8.67,20.94,14.88,35.21,11.55
			c19.14-4.46,32.22-23.32,29.48-41.62C509.21,66.95,495.08,54.52,486.27,54.23z"/>
		
			<linearGradient id="SVGID_00000072974525472826813760000007917460486234817418_" gradientUnits="userSpaceOnUse" x1="512.8681" y1="92.0453" x2="578.5663" y2="92.0453">
			<stop  offset="0" style="stop-color:#FFF33B"/>
			<stop  offset="0.0595" style="stop-color:#FFE029"/>
			<stop  offset="0.1303" style="stop-color:#FFD217"/>
			<stop  offset="0.2032" style="stop-color:#FEC90E"/>
			<stop  offset="0.2809" style="stop-color:#FDC70C"/>
			<stop  offset="0.6685" style="stop-color:#F3903F"/>
			<stop  offset="0.8876" style="stop-color:#ED683C"/>
			<stop  offset="1" style="stop-color:#E93E3A"/>
		</linearGradient>
		<path style="fill:url(#SVGID_00000072974525472826813760000007917460486234817418_);stroke:#000000;stroke-miterlimit:10;" d="
			M529.65,69.65c-2.76,0.66-3.78-0.72-4.6-2.91c-2.46-6.57-6.37-12.28-10.93-17.57c-0.22-0.26-0.56-0.48-0.64-0.78
			c-0.29-1.01-0.69-2.06-0.6-3.06c0.02-0.28,1.58-0.6,2.43-0.61c17.29-0.06,34.59-0.07,51.88-0.09c3.14,0,6.27,0.04,9.41,0.03
			c1.33,0,1.95,0.42,1.93,1.93c-0.07,6.87-0.05,13.73,0.03,20.6c0.02,1.79-0.67,2.39-2.4,2.36c-4.83-0.07-9.65-0.02-14.96-0.02
			c0,1.13,0,2.1,0,3.07c0.03,21.28,0.02,42.56,0.12,63.84c0.01,2.32-0.58,3.05-3.02,3c-8.39-0.18-16.79-0.06-25.18-0.09
			c-3.32-0.01-3.33-0.05-3.33-3.48c0.01-21.36,0.02-42.73,0.02-64.09C529.83,71.2,529.73,70.62,529.65,69.65z"/>
	</g>
</g>
</svg>
