<?xml version="1.0" encoding="utf-8"?>
<!-- Generator: Adobe Illustrator 27.9.1, SVG Export Plug-In . SVG Version: 6.00 Build 0)  -->
<svg version="1.1" id="Capa_1" xmlns="http://www.w3.org/2000/svg" xmlns:xlink="http://www.w3.org/1999/xlink" x="0px" y="0px"
	 viewBox="0 0 701 509.11" style="enable-background:new 0 0 701 509.11;" xml:space="preserve">
<path d="M4.11,258.57c-1.49-3.62-1.48-7.71,0.03-11.32c0.76-1.82,1.85-3.46,3.23-4.82L244.94,5.97c2.9-2.88,6.69-4.32,10.48-4.32
	c3.79,0.01,7.58,1.47,10.46,4.37c5.78,5.81,5.76,15.17-0.05,20.95L53.6,238.21l630.9,1.49c8.19,0.02,14.8,6.67,14.78,14.85
	s-6.66,14.8-14.85,14.78l-630.9-1.49l211.25,212.25c5.78,5.81,5.76,15.17-0.05,20.95c-5.81,5.78-15.17,5.76-20.95-0.05L7.31,263.41
	C5.94,262.03,4.86,260.4,4.11,258.57z"/>
</svg>
