<?xml version="1.0" encoding="utf-8"?>
<!-- Generator: Adobe Illustrator 27.9.1, SVG Export Plug-In . SVG Version: 6.00 Build 0)  -->
<svg version="1.1" id="Layer_2" xmlns="http://www.w3.org/2000/svg" xmlns:xlink="http://www.w3.org/1999/xlink" x="0px" y="0px"
	 viewBox="0 0 732 112.5" style="enable-background:new 0 0 732 112.5;" xml:space="preserve">
<style type="text/css">
	.st0{fill:none;stroke:#00D02F;stroke-miterlimit:10;}
	.st1{fill:#FF3131;}
</style>
<path class="st0" d="M386.5-58.5"/>
<g>
	<path class="st1" d="M646.5,60.92c0,0,1-23.42,17-28.42l6,8l14-34l-39,1l5,7c0,0-20,13-25,40c0,0-6-14-37-15l19-31l-18-8
		c0,0-33,57-34,61c0,0-10-19-29-20l28-37L474,4v18.38L517,22l-22.5,31.5c0,0,34-6,41,16c0,0,5,25-21,27c0,0-19,1-30-10l-15.5,12
		c0,0,24.5,16.97,41,16.49c0,0,33.5-1.49,42.5-24.49c0,0,9,23,38,22c0,0,31,1,39-28c0,0,18,22,33,26l9-20c0,0-25-6-25-30"/>
	<path class="st1" d="M690,8l-7,21c0,0,26,4,25,32c0,0,1.5,24.5-28.5,30.5l-9,20c0,0,47,8,59-50C729.5,61.5,735.5,24.5,690,8z"/>
</g>
<g>
	<path d="M115.17,9.67c-1.11,0.1-2.32,0.19-3.63,0.29c-1.32,0.1-3.17,0.36-5.54,0.79c-2.38,0.43-4.19,1.53-5.42,3.29
		c-1.23,1.77-1.98,4.17-2.23,7.22l-0.26,6.87v83.54H82.54L21.99,24.69h-0.51v66.8l0.25,6.87c0.25,3.15,0.96,5.49,2.1,7.01
		c1.15,1.53,2.89,2.5,5.23,2.93c2.34,0.43,4.33,0.69,5.99,0.79c1.66,0.1,2.78,0.19,3.38,0.29v2.29H1.61v-2.29
		c1.11-0.09,2.35-0.19,3.72-0.29c1.37-0.09,3.79-0.45,7.25-1.07c3.46-0.62,5.45-3.84,5.97-9.66l0.26-6.87V26.41l-0.26-6.58
		c-1.11-2-2.44-3.86-3.98-5.58c-1.54-1.72-3.23-2.91-5.07-3.58c-1.84-0.67-3.61-1-5.33-1H0.33V7.38h48.75l45.82,65.8h0.51V27.55
		l-0.25-6.87c-0.25-3.05-0.96-5.36-2.1-6.94c-1.15-1.57-2.87-2.58-5.16-3c-2.29-0.43-4.14-0.69-5.54-0.79
		c-1.4-0.09-2.7-0.19-3.89-0.29V7.38h36.71V9.67z"/>
	<path d="M165.51,108.8c3.57-0.09,7.22-0.17,10.96-0.21c3.74-0.05,7.69-0.38,11.85-1c4.16-0.62,9.3-5.34,15.42-14.16
		c6.12-8.82,10.62-17.9,13.51-27.25h2.04v45.49H119.12v-2.29c1.1,0,2.38-0.07,3.82-0.21c1.44-0.14,3.08-0.33,4.91-0.57
		c1.83-0.24,3.23-0.95,4.21-2.15c0.98-1.19,1.59-3.31,1.85-6.37l0.25-6.58v-67.8l-0.25-6.58c-0.25-3.05-0.89-5.2-1.91-6.44
		c-1.02-1.24-2.44-2-4.27-2.29c-1.83-0.29-3.48-0.45-4.97-0.5c-1.49-0.05-2.83-0.12-4.01-0.21V7.38h98.01v42.34h-2.04
		c-4.33-10.68-9.6-19.67-15.8-26.96c-6.2-7.3-11.41-11.18-15.61-11.66c-4.21-0.48-7.75-0.76-10.64-0.86
		c-2.89-0.09-4.8-0.14-5.74-0.14h-1.15l-0.25,46.92l5.35-0.29c4.93-0.57,8.65-3.17,11.15-7.8c2.5-4.62,3.76-10.08,3.76-16.38h2.42
		v52.07h-2.42c0-6.39-1.25-11.97-3.76-16.74c-2.51-4.77-6.23-7.44-11.15-8.01l-5.35-0.29V108.8z"/>
	<path d="M300.61,34.27l-5.23-15.16c-1.19-2.77-2.19-4.81-3-6.15c-0.81-1.33-2.53-2.24-5.16-2.72l-3.95-0.57V7.38h56.08v2.29h-1.78
		c-0.6,0-1.7,0.17-3.31,0.5c-1.62,0.33-2.98,0.74-4.08,1.22c-1.11,0.48-1.66,1.91-1.66,4.29c0,2.2,0.57,5.25,1.72,9.16
		c1.15,3.91,2.49,8.27,4.01,13.09c1.53,4.82,3.52,11.04,5.99,18.67c2.46,7.63,4.25,13.16,5.35,16.59c1.1-3.24,2.44-7.15,4.01-11.73
		c1.57-4.58,3.74-11.04,6.5-19.38c2.76-8.34,4.57-14.07,5.42-17.17c0.85-3.1,1.28-5.79,1.28-8.08c0-2.19-0.51-3.77-1.53-4.72
		c-1.02-0.95-2.25-1.55-3.7-1.79c-1.45-0.24-2.8-0.38-4.08-0.43c-1.27-0.05-2.47-0.12-3.57-0.21V7.38h32.88v2.29l-5.61,0.71
		c-2.72,0.48-4.85,1.34-6.38,2.58c-1.53,1.24-2.89,3.43-4.08,6.58l-3.83,11.01l-27.3,81.68h-10.2L302.2,38.42l-24.36,73.81h-10.2
		l-26.02-81.97l-3.96-11.16c-1.28-3.05-2.45-5.22-3.51-6.51c-1.06-1.29-2.66-2.07-4.78-2.36l-4.46-0.57V7.38h55.06v2.29l-4.08,0.43
		c-1.96,0.29-3.34,0.74-4.14,1.36c-0.81,0.62-1.21,1.79-1.21,3.5c0,2.1,0.7,5.46,2.1,10.08c1.4,4.63,3.16,10.23,5.29,16.81
		c2.12,6.58,4.04,12.4,5.74,17.45c1.7,5.06,3.1,9.25,4.21,12.59L300.61,34.27z"/>
	<path d="M463.12,81.05c0,9.44-3.55,17.19-10.66,23.25c-7.11,6.06-14.83,9.08-23.17,9.08c-7.32,0-14.55-2.6-21.7-7.8
		c-7.15-5.2-11.28-7.8-12.38-7.8c-2.81,0-4.55,1.19-5.23,3.58c-0.68,2.39-1.32,6.39-1.92,12.02h-2.17V62.17h2.17
		c0.51,2,1.38,5.29,2.61,9.87c1.23,4.58,3.53,10.04,6.88,16.38c3.36,6.34,7.78,11.61,13.26,15.81c5.48,4.2,11.83,6.29,19.05,6.29
		c4.16,0,7.56-1.24,10.2-3.72c2.63-2.48,3.95-5.44,3.95-8.87c0-4.1-0.98-7.34-2.93-9.73c-1.96-2.38-5.48-4.7-10.58-6.94
		c-5.1-2.24-10.5-4.65-16.19-7.22c-5.69-2.58-11.73-6.05-18.1-10.44c-6.37-4.29-9.56-12.4-9.56-24.32c0-9.34,3.36-17.26,10.07-23.75
		c6.71-6.48,14.44-9.73,23.2-9.73c4.84,0,9.56,1.29,14.15,3.86l13.25,8.3c2.46,0,4.08-1.17,4.84-3.5c0.76-2.34,1.15-5.22,1.15-8.65
		h2.42v37.91h-2.29c-0.42-1.62-1.29-4.38-2.61-8.3c-1.31-3.91-3.86-8.3-7.63-13.16c-3.77-4.86-7.5-8.37-11.19-10.51
		c-3.69-2.15-8.12-3.22-13.28-3.22c-3.48,0-6.7,1.14-9.66,3.43c-2.97,2.29-4.45,5.15-4.45,8.58c0,3.63,1.12,6.65,3.38,9.08
		c2.25,2.43,4.84,4.36,7.78,5.79c2.93,1.43,6.99,3.24,12.17,5.44c5.18,2.19,10.56,4.75,16.12,7.65c5.56,2.91,10.13,7.15,13.7,12.73
		C461.33,66.82,463.12,73.42,463.12,81.05z"/>
</g>
</svg>
