<?xml version="1.0" encoding="utf-8"?>
<!-- Generator: Adobe Illustrator 27.9.1, SVG Export Plug-In . SVG Version: 6.00 Build 0)  -->
<svg version="1.1" id="Capa_1" xmlns="http://www.w3.org/2000/svg" xmlns:xlink="http://www.w3.org/1999/xlink" x="0px" y="0px"
	 viewBox="0 0 701 509.11" style="enable-background:new 0 0 701 509.11;" xml:space="preserve">
<path d="M695.16,248.08c-0.76-1.82-1.84-3.45-3.21-4.83L454.92,6.23c-5.79-5.79-15.16-5.79-20.95,0c-5.79,5.79-5.79,15.16,0,20.95
	l211.75,211.75H14.81C6.62,238.92,0,245.56,0,253.74s6.62,14.81,14.81,14.81h630.9L433.97,480.3c-5.79,5.79-5.79,15.16,0,20.95
	c2.89,2.89,6.68,4.34,10.47,4.34s7.59-1.45,10.47-4.34l237.02-237.02c1.38-1.36,2.46-3.01,3.21-4.83
	C696.65,255.78,696.65,251.69,695.16,248.08z"/>
</svg>
