<?xml version="1.0" encoding="utf-8"?>
<!-- Generator: Adobe Illustrator 27.9.1, SVG Export Plug-In . SVG Version: 6.00 Build 0)  -->
<svg version="1.1" id="Layer_1" xmlns="http://www.w3.org/2000/svg" xmlns:xlink="http://www.w3.org/1999/xlink" x="0px" y="0px"
	 viewBox="0 0 171 171.65" style="enable-background:new 0 0 171 171.65;" xml:space="preserve">
<style type="text/css">
	.st0{fill:#FFFFFF;}
	.st1{display:none;}
	.st2{display:inline;fill:#FFFFFF;}
	.st3{display:inline;}
</style>
<g>
	<circle cx="85.5" cy="86.15" r="85.5"/>
	<path class="st0" d="M98.43,86.15c0,13.25,0,26.5,0,39.75c0,2.71-0.75,5.05-3.26,6.47c-2.92,1.66-5.49,0.7-7.89-1.18
		c-5.93-4.65-11.86-9.28-17.76-13.96c-1.17-0.93-2.24-1.38-3.88-1.25c-3.5,0.28-7.04,0.1-10.57,0.1c-3.71,0-7.42,0.04-11.12-0.01
		c-6.89-0.09-12.17-5.15-12.24-12.06c-0.12-12.09-0.12-24.19,0.01-36.29c0.07-6.57,4.85-11.67,11.4-11.83
		c8.12-0.2,16.26,0.13,24.39,0.16c0.62,0,1.32-0.48,1.86-0.89c5.89-4.59,11.76-9.21,17.63-13.84c1.91-1.51,3.91-2.72,6.49-2.06
		c3.23,0.83,4.94,3.29,4.95,7.13c0.01,11.79,0,23.58,0,35.38C98.43,83.23,98.43,84.69,98.43,86.15z"/>
	<g>
		<path class="st0" d="M150.3,99.76L150.3,99.76c-1.3,1.43-3.5,1.53-4.93,0.23l-33.24-30.22c-1.43-1.3-1.53-3.5-0.23-4.93l0,0
			c1.3-1.43,3.5-1.53,4.93-0.23l33.24,30.22C151.49,96.13,151.6,98.33,150.3,99.76z"/>
		<path class="st0" d="M113.43,101.4L113.43,101.4c-1.43-1.3-1.53-3.5-0.23-4.93l30.22-33.24c1.3-1.43,3.5-1.53,4.93-0.23v0
			c1.43,1.3,1.53,3.5,0.23,4.93l-30.22,33.24C117.07,102.59,114.86,102.7,113.43,101.4z"/>
	</g>
</g>
<circle class="st1" cx="85.23" cy="86.15" r="85.5"/>
<g class="st1">
	<path class="st2" d="M128.32,91.8c-6.59,4.2-13.32,8.16-20,12.22c-13.36,8.11-26.71,16.22-40.08,24.31
		c-5.12,3.1-10.47,1.09-11.99-4.5c-0.23-0.87-0.24-1.82-0.24-2.73c-0.01-12.09-0.01-24.17-0.01-36.26c0-12.09-0.01-24.17,0-36.26
		c0.01-7.16,6.1-10.88,12.1-7.27c18.2,10.95,36.35,21.98,54.52,32.98c1.88,1.14,3.79,2.22,5.63,3.43
		C133.59,81.24,133.69,88.37,128.32,91.8z"/>
</g>
<g class="st1">
	<g class="st3">
		<path class="st0" d="M95.85,86.27c0-10.52-0.04-21.03,0.01-31.55c0.02-5.21,3.26-9.63,8.06-11.3c4.89-1.7,10.22-0.12,13.51,3.97
			c1.94,2.42,2.59,5.27,2.59,8.28c0.02,20.34,0.07,40.69-0.02,61.03c-0.03,7.72-5.16,12.92-12.27,12.85
			c-6.52-0.06-11.82-5.19-11.87-11.74C95.8,107.31,95.86,96.79,95.85,86.27z"/>
		<path class="st0" d="M74.47,86.31c0,10.65,0.15,21.31-0.05,31.95c-0.13,6.6-5.59,11.4-12.23,11.29
			c-6.45-0.11-11.65-5.09-11.7-11.65c-0.12-16.7-0.06-33.4-0.06-50.1c0-4.54-0.07-9.07,0.07-13.61c0.18-6.34,5.38-11.3,11.76-11.4
			c6.52-0.1,12.04,4.72,12.16,11.15c0.2,10.79,0.05,21.58,0.05,32.37C74.46,86.31,74.46,86.31,74.47,86.31z"/>
	</g>
</g>
<g class="st1">
	<path class="st2" d="M98.16,86.15c0,13.25,0,26.5,0,39.75c0,2.71-0.75,5.05-3.26,6.47c-2.92,1.66-5.49,0.7-7.89-1.18
		c-5.93-4.65-11.86-9.28-17.76-13.96c-1.17-0.93-2.24-1.38-3.88-1.25c-3.5,0.28-7.04,0.1-10.57,0.1c-3.71,0-7.42,0.04-11.12-0.01
		c-6.89-0.09-12.17-5.15-12.24-12.06c-0.12-12.09-0.12-24.19,0.01-36.29c0.07-6.57,4.85-11.67,11.4-11.83
		c8.12-0.2,16.26,0.13,24.39,0.16c0.62,0,1.32-0.48,1.86-0.89c5.89-4.59,11.76-9.21,17.63-13.84c1.91-1.51,3.91-2.72,6.49-2.06
		c3.23,0.83,4.94,3.29,4.95,7.13c0.01,11.79,0,23.58,0,35.38C98.16,83.23,98.16,84.69,98.16,86.15z"/>
	<path class="st2" d="M137.1,49.87c-0.45,0.55-1.1,1.97-2.21,2.64c-5.42,3.3-10.94,6.45-16.47,9.57c-2.28,1.29-4.53,0.71-5.7-1.24
		c-1.21-2.04-0.59-4.31,1.77-5.69c5.42-3.2,10.86-6.36,16.35-9.43C133.85,44.03,137.19,45.86,137.1,49.87z"/>
	<path class="st2" d="M125.25,90.42c-3.03,0-6.07,0.04-9.1-0.02c-1.77-0.03-3.38-0.55-4.17-2.35c-0.62-1.43-0.65-2.95,0.49-4.06
		c0.76-0.74,1.93-1.46,2.93-1.48c6.67-0.13,13.34-0.11,20.01-0.03c2.19,0.03,3.63,1.62,3.7,3.7c0.08,2.16-1.1,3.86-3.34,3.99
		c-3.5,0.21-7.02,0.06-10.53,0.06C125.25,90.3,125.25,90.36,125.25,90.42z"/>
	<path class="st2" d="M137.59,124.02c-0.03,2.18-2.31,3.99-4.82,3.4c-0.47-0.11-0.95-0.26-1.36-0.5
		c-5.52-3.16-11.04-6.33-16.53-9.53c-1.54-0.89-2.35-2.26-2.13-4.1c0.18-1.51,0.94-2.8,2.41-3.09c1.21-0.24,2.74-0.22,3.78,0.34
		c5.53,3.02,10.96,6.22,16.39,9.41C136.69,120.75,137.65,121.9,137.59,124.02z"/>
</g>
</svg>
